<svg width="2414" height="1555" viewBox="0 0 2414 1555" fill="none" xmlns="http://www.w3.org/2000/svg">
    <rect width="2414" height="1555" fill="white"/>
    <rect width="211.128" height="190" fill="#1E1E1E"/>
    <rect x="2202.87" y="1365" width="211.128" height="190" fill="#1E1E1E"/>
    <rect x="211.128" y="190" width="294.958" height="190" fill="#1E1E1E"/>
    <rect x="1907.91" y="1175" width="294.958" height="190" fill="#1E1E1E"/>
    <rect x="506.086" width="589.916" height="190" fill="#1E1E1E"/>
    <rect x="1318" y="1365" width="589.916" height="190" fill="#1E1E1E"/>
    <rect x="1096" y="190" width="686.166" height="190" fill="#1E1E1E"/>
    <rect x="1096" y="190" width="686.166" height="190" fill="#1E1E1E"/>
    <rect x="1096" y="190" width="686.166" height="190" fill="#1E1E1E"/>
    <rect x="631.832" y="1175" width="686.166" height="190" fill="#1E1E1E"/>
    <rect x="2213.74" width="200.261" height="190" fill="#1E1E1E"/>
    <rect y="1365" width="200.261" height="190" fill="#1E1E1E"/>
    <path d="M1467.68 1060.09V1095H1460.29V1060.09H1467.68ZM1480.87 1079.86V1095H1473.61V1068.82H1480.53V1073.44H1480.84C1481.42 1071.91 1482.39 1070.71 1483.75 1069.82C1485.12 1068.93 1486.77 1068.48 1488.71 1068.48C1490.53 1068.48 1492.12 1068.88 1493.47 1069.67C1494.82 1070.47 1495.87 1071.6 1496.62 1073.08C1497.37 1074.55 1497.75 1076.3 1497.75 1078.33V1095H1490.49V1079.62C1490.5 1078.02 1490.09 1076.77 1489.26 1075.88C1488.43 1074.97 1487.29 1074.51 1485.83 1074.51C1484.86 1074.51 1483.99 1074.72 1483.24 1075.14C1482.5 1075.56 1481.92 1076.18 1481.5 1076.98C1481.09 1077.78 1480.88 1078.74 1480.87 1079.86ZM1525.25 1076.28L1518.61 1076.69C1518.49 1076.12 1518.25 1075.61 1517.87 1075.16C1517.5 1074.69 1517 1074.32 1516.39 1074.05C1515.79 1073.77 1515.07 1073.62 1514.23 1073.62C1513.1 1073.62 1512.15 1073.86 1511.38 1074.34C1510.61 1074.81 1510.22 1075.43 1510.22 1076.22C1510.22 1076.84 1510.47 1077.37 1510.97 1077.8C1511.47 1078.23 1512.33 1078.58 1513.54 1078.84L1518.28 1079.8C1520.83 1080.32 1522.73 1081.16 1523.98 1082.32C1525.23 1083.48 1525.85 1085 1525.85 1086.89C1525.85 1088.6 1525.35 1090.11 1524.33 1091.4C1523.33 1092.7 1521.96 1093.71 1520.21 1094.44C1518.47 1095.15 1516.47 1095.51 1514.19 1095.51C1510.73 1095.51 1507.97 1094.79 1505.91 1093.35C1503.86 1091.89 1502.66 1089.91 1502.31 1087.41L1509.45 1087.04C1509.67 1088.1 1510.19 1088.9 1511.02 1089.46C1511.85 1090.01 1512.91 1090.28 1514.21 1090.28C1515.48 1090.28 1516.5 1090.03 1517.28 1089.55C1518.06 1089.05 1518.46 1088.4 1518.47 1087.62C1518.46 1086.96 1518.18 1086.42 1517.64 1086C1517.09 1085.57 1516.25 1085.24 1515.11 1085.01L1510.58 1084.11C1508.02 1083.6 1506.12 1082.71 1504.87 1081.45C1503.63 1080.19 1503.01 1078.58 1503.01 1076.62C1503.01 1074.94 1503.47 1073.49 1504.37 1072.28C1505.29 1071.06 1506.58 1070.12 1508.24 1069.47C1509.91 1068.81 1511.87 1068.48 1514.11 1068.48C1517.41 1068.48 1520.02 1069.18 1521.91 1070.57C1523.82 1071.97 1524.94 1073.87 1525.25 1076.28ZM1542.25 1095.51C1539.57 1095.51 1537.26 1094.94 1535.33 1093.81C1533.41 1092.66 1531.94 1091.07 1530.9 1089.03C1529.88 1087 1529.37 1084.66 1529.37 1082.01C1529.37 1079.33 1529.88 1076.98 1530.92 1074.95C1531.96 1072.92 1533.45 1071.34 1535.37 1070.2C1537.29 1069.05 1539.57 1068.48 1542.22 1068.48C1544.5 1068.48 1546.5 1068.89 1548.22 1069.72C1549.94 1070.55 1551.29 1071.72 1552.29 1073.22C1553.29 1074.72 1553.84 1076.48 1553.95 1078.5H1547.09C1546.9 1077.19 1546.39 1076.14 1545.56 1075.35C1544.74 1074.54 1543.67 1074.14 1542.34 1074.14C1541.21 1074.14 1540.23 1074.44 1539.39 1075.06C1538.56 1075.66 1537.91 1076.54 1537.45 1077.7C1536.98 1078.86 1536.75 1080.26 1536.75 1081.91C1536.75 1083.58 1536.98 1085 1537.43 1086.17C1537.9 1087.34 1538.55 1088.23 1539.39 1088.85C1540.23 1089.46 1541.21 1089.77 1542.34 1089.77C1543.17 1089.77 1543.91 1089.6 1544.57 1089.26C1545.24 1088.91 1545.79 1088.42 1546.23 1087.77C1546.67 1087.11 1546.96 1086.32 1547.09 1085.4H1553.95C1553.83 1087.4 1553.29 1089.16 1552.31 1090.69C1551.34 1092.2 1550.01 1093.38 1548.3 1094.23C1546.6 1095.09 1544.58 1095.51 1542.25 1095.51ZM1558.6 1095V1068.82H1565.64V1073.39H1565.91C1566.39 1071.76 1567.19 1070.53 1568.31 1069.7C1569.44 1068.86 1570.73 1068.44 1572.2 1068.44C1572.56 1068.44 1572.95 1068.47 1573.37 1068.51C1573.79 1068.56 1574.16 1068.62 1574.48 1068.7V1075.14C1574.14 1075.04 1573.67 1074.95 1573.07 1074.87C1572.47 1074.79 1571.91 1074.75 1571.41 1074.75C1570.35 1074.75 1569.39 1074.98 1568.55 1075.45C1567.72 1075.9 1567.06 1076.54 1566.57 1077.36C1566.1 1078.18 1565.86 1079.12 1565.86 1080.19V1095H1558.6ZM1578.24 1095V1068.82H1585.5V1095H1578.24ZM1581.88 1065.44C1580.8 1065.44 1579.88 1065.09 1579.11 1064.37C1578.34 1063.64 1577.96 1062.77 1577.96 1061.76C1577.96 1060.76 1578.34 1059.9 1579.11 1059.19C1579.88 1058.46 1580.8 1058.1 1581.88 1058.1C1582.96 1058.1 1583.88 1058.46 1584.65 1059.19C1585.42 1059.9 1585.8 1060.76 1585.8 1061.76C1585.8 1062.77 1585.42 1063.64 1584.65 1064.37C1583.88 1065.09 1582.96 1065.44 1581.88 1065.44ZM1591.45 1095V1060.09H1598.71V1073.22H1598.93C1599.25 1072.51 1599.71 1071.8 1600.31 1071.07C1600.93 1070.33 1601.72 1069.72 1602.7 1069.23C1603.69 1068.73 1604.92 1068.48 1606.38 1068.48C1608.29 1068.48 1610.05 1068.98 1611.67 1069.98C1613.28 1070.97 1614.57 1072.46 1615.54 1074.46C1616.5 1076.45 1616.99 1078.94 1616.99 1081.94C1616.99 1084.86 1616.51 1087.33 1615.57 1089.34C1614.64 1091.34 1613.37 1092.86 1611.75 1093.89C1610.15 1094.91 1608.35 1095.43 1606.37 1095.43C1604.96 1095.43 1603.76 1095.19 1602.77 1094.73C1601.79 1094.26 1600.99 1093.68 1600.37 1092.97C1599.74 1092.26 1599.26 1091.53 1598.93 1090.81H1598.61V1095H1591.45ZM1598.56 1081.91C1598.56 1083.47 1598.77 1084.82 1599.21 1085.98C1599.64 1087.14 1600.26 1088.05 1601.08 1088.69C1601.9 1089.33 1602.89 1089.65 1604.06 1089.65C1605.25 1089.65 1606.25 1089.32 1607.06 1088.68C1607.88 1088.02 1608.5 1087.11 1608.92 1085.95C1609.35 1084.78 1609.57 1083.43 1609.57 1081.91C1609.57 1080.4 1609.36 1079.07 1608.94 1077.92C1608.52 1076.77 1607.9 1075.87 1607.08 1075.23C1606.26 1074.58 1605.26 1074.26 1604.06 1074.26C1602.88 1074.26 1601.88 1074.57 1601.06 1075.19C1600.26 1075.82 1599.64 1076.7 1599.21 1077.85C1598.77 1079 1598.56 1080.35 1598.56 1081.91ZM1633.76 1095.51C1631.07 1095.51 1628.75 1094.97 1626.81 1093.88C1624.88 1092.77 1623.39 1091.22 1622.34 1089.2C1621.3 1087.18 1620.77 1084.79 1620.77 1082.03C1620.77 1079.34 1621.3 1076.97 1622.34 1074.94C1623.39 1072.9 1624.86 1071.32 1626.76 1070.18C1628.67 1069.05 1630.9 1068.48 1633.47 1068.48C1635.2 1068.48 1636.81 1068.76 1638.3 1069.31C1639.8 1069.86 1641.1 1070.68 1642.22 1071.78C1643.34 1072.89 1644.22 1074.27 1644.84 1075.94C1645.47 1077.6 1645.78 1079.55 1645.78 1081.77V1083.77H1623.67V1079.27H1638.94C1638.94 1078.22 1638.72 1077.3 1638.26 1076.49C1637.81 1075.68 1637.18 1075.05 1636.37 1074.6C1635.57 1074.13 1634.65 1073.9 1633.59 1073.9C1632.49 1073.9 1631.51 1074.15 1630.66 1074.66C1629.82 1075.16 1629.16 1075.84 1628.68 1076.69C1628.21 1077.53 1627.96 1078.47 1627.95 1079.51V1083.78C1627.95 1085.08 1628.19 1086.2 1628.67 1087.14C1629.15 1088.09 1629.84 1088.81 1630.73 1089.32C1631.61 1089.84 1632.67 1090.09 1633.88 1090.09C1634.69 1090.09 1635.43 1089.98 1636.1 1089.75C1636.77 1089.52 1637.34 1089.18 1637.82 1088.73C1638.3 1088.27 1638.66 1087.72 1638.91 1087.06L1645.63 1087.5C1645.28 1089.11 1644.59 1090.52 1643.53 1091.73C1642.48 1092.92 1641.13 1093.85 1639.47 1094.52C1637.82 1095.18 1635.92 1095.51 1633.76 1095.51ZM1664.44 1068.82V1074.27H1648.68V1068.82H1664.44ZM1652.26 1062.55H1659.52V1086.95C1659.52 1087.62 1659.62 1088.15 1659.82 1088.52C1660.03 1088.89 1660.31 1089.14 1660.68 1089.29C1661.05 1089.44 1661.48 1089.51 1661.97 1089.51C1662.31 1089.51 1662.65 1089.48 1662.99 1089.43C1663.34 1089.36 1663.6 1089.31 1663.78 1089.27L1664.92 1094.68C1664.56 1094.79 1664.05 1094.92 1663.39 1095.07C1662.73 1095.23 1661.93 1095.32 1660.98 1095.36C1659.23 1095.43 1657.7 1095.19 1656.38 1094.66C1655.07 1094.12 1654.06 1093.3 1653.33 1092.17C1652.6 1091.05 1652.24 1089.62 1652.26 1087.91V1062.55ZM1680.82 1095.51C1678.13 1095.51 1675.81 1094.97 1673.87 1093.88C1671.94 1092.77 1670.45 1091.22 1669.4 1089.2C1668.36 1087.18 1667.84 1084.79 1667.84 1082.03C1667.84 1079.34 1668.36 1076.97 1669.4 1074.94C1670.45 1072.9 1671.92 1071.32 1673.82 1070.18C1675.73 1069.05 1677.97 1068.48 1680.53 1068.48C1682.26 1068.48 1683.87 1068.76 1685.36 1069.31C1686.86 1069.86 1688.17 1070.68 1689.28 1071.78C1690.4 1072.89 1691.28 1074.27 1691.9 1075.94C1692.53 1077.6 1692.84 1079.55 1692.84 1081.77V1083.77H1670.73V1079.27H1686.01C1686.01 1078.22 1685.78 1077.3 1685.32 1076.49C1684.87 1075.68 1684.24 1075.05 1683.43 1074.6C1682.64 1074.13 1681.71 1073.9 1680.65 1073.9C1679.55 1073.9 1678.57 1074.15 1677.72 1074.66C1676.88 1075.16 1676.22 1075.84 1675.74 1076.69C1675.27 1077.53 1675.02 1078.47 1675.01 1079.51V1083.78C1675.01 1085.08 1675.25 1086.2 1675.73 1087.14C1676.22 1088.09 1676.9 1088.81 1677.79 1089.32C1678.68 1089.84 1679.73 1090.09 1680.94 1090.09C1681.75 1090.09 1682.49 1089.98 1683.16 1089.75C1683.83 1089.52 1684.4 1089.18 1684.88 1088.73C1685.36 1088.27 1685.72 1087.72 1685.97 1087.06L1692.69 1087.5C1692.35 1089.11 1691.65 1090.52 1690.59 1091.73C1689.55 1092.92 1688.19 1093.85 1686.53 1094.52C1684.89 1095.18 1682.98 1095.51 1680.82 1095.51ZM1714.84 1095H1706.93L1718.99 1060.09H1728.5L1740.53 1095H1732.62L1723.88 1068.07H1723.6L1714.84 1095ZM1714.35 1081.28H1733.03V1087.04H1714.35V1081.28ZM1751.86 1079.86V1095H1744.6V1060.09H1751.65V1073.44H1751.96C1752.55 1071.89 1753.5 1070.68 1754.82 1069.81C1756.14 1068.92 1757.79 1068.48 1759.78 1068.48C1761.6 1068.48 1763.19 1068.88 1764.54 1069.67C1765.9 1070.45 1766.96 1071.59 1767.71 1073.06C1768.47 1074.53 1768.85 1076.28 1768.83 1078.33V1095H1761.57V1079.62C1761.58 1078.01 1761.18 1076.76 1760.35 1075.86C1759.53 1074.96 1758.38 1074.51 1756.9 1074.51C1755.91 1074.51 1755.04 1074.72 1754.28 1075.14C1753.53 1075.56 1752.94 1076.18 1752.5 1076.98C1752.08 1077.78 1751.87 1078.74 1751.86 1079.86ZM1786.38 1095.51C1783.73 1095.51 1781.44 1094.95 1779.51 1093.82C1777.59 1092.69 1776.11 1091.11 1775.06 1089.09C1774.01 1087.05 1773.49 1084.69 1773.49 1082.01C1773.49 1079.31 1774.01 1076.94 1775.06 1074.92C1776.11 1072.89 1777.59 1071.31 1779.51 1070.18C1781.44 1069.05 1783.73 1068.48 1786.38 1068.48C1789.03 1068.48 1791.31 1069.05 1793.23 1070.18C1795.16 1071.31 1796.65 1072.89 1797.7 1074.92C1798.74 1076.94 1799.26 1079.31 1799.26 1082.01C1799.26 1084.69 1798.74 1087.05 1797.7 1089.09C1796.65 1091.11 1795.16 1092.69 1793.23 1093.82C1791.31 1094.95 1789.03 1095.51 1786.38 1095.51ZM1786.41 1089.89C1787.62 1089.89 1788.62 1089.55 1789.43 1088.86C1790.24 1088.17 1790.84 1087.23 1791.25 1086.03C1791.67 1084.84 1791.88 1083.48 1791.88 1081.96C1791.88 1080.44 1791.67 1079.08 1791.25 1077.89C1790.84 1076.69 1790.24 1075.75 1789.43 1075.06C1788.62 1074.36 1787.62 1074.02 1786.41 1074.02C1785.2 1074.02 1784.17 1074.36 1783.34 1075.06C1782.53 1075.75 1781.91 1076.69 1781.49 1077.89C1781.08 1079.08 1780.87 1080.44 1780.87 1081.96C1780.87 1083.48 1781.08 1084.84 1781.49 1086.03C1781.91 1087.23 1782.53 1088.17 1783.34 1088.86C1784.17 1089.55 1785.2 1089.89 1786.41 1089.89ZM1803.99 1095V1068.82H1811.03V1073.39H1811.3C1811.78 1071.76 1812.58 1070.53 1813.7 1069.7C1814.83 1068.86 1816.12 1068.44 1817.59 1068.44C1817.95 1068.44 1818.34 1068.47 1818.76 1068.51C1819.19 1068.56 1819.55 1068.62 1819.87 1068.7V1075.14C1819.53 1075.04 1819.06 1074.95 1818.46 1074.87C1817.86 1074.79 1817.3 1074.75 1816.8 1074.75C1815.74 1074.75 1814.78 1074.98 1813.94 1075.45C1813.11 1075.9 1812.45 1076.54 1811.96 1077.36C1811.49 1078.18 1811.25 1079.12 1811.25 1080.19V1095H1803.99ZM1830.34 1095.49C1828.67 1095.49 1827.18 1095.2 1825.88 1094.62C1824.57 1094.03 1823.54 1093.16 1822.77 1092.02C1822.02 1090.86 1821.65 1089.41 1821.65 1087.69C1821.65 1086.23 1821.92 1085.01 1822.45 1084.02C1822.99 1083.03 1823.71 1082.24 1824.63 1081.64C1825.55 1081.03 1826.6 1080.58 1827.77 1080.27C1828.95 1079.97 1830.19 1079.75 1831.49 1079.62C1833.01 1079.47 1834.24 1079.32 1835.17 1079.18C1836.1 1079.03 1836.77 1078.82 1837.2 1078.53C1837.62 1078.25 1837.83 1077.83 1837.83 1077.27V1077.17C1837.83 1076.09 1837.49 1075.26 1836.8 1074.66C1836.13 1074.07 1835.18 1073.78 1833.94 1073.78C1832.63 1073.78 1831.59 1074.07 1830.82 1074.65C1830.05 1075.22 1829.54 1075.93 1829.29 1076.8L1822.57 1076.25C1822.91 1074.66 1823.58 1073.28 1824.58 1072.12C1825.58 1070.95 1826.87 1070.06 1828.45 1069.43C1830.04 1068.8 1831.88 1068.48 1833.97 1068.48C1835.43 1068.48 1836.82 1068.65 1838.15 1068.99C1839.49 1069.33 1840.68 1069.86 1841.71 1070.57C1842.76 1071.29 1843.58 1072.21 1844.18 1073.34C1844.79 1074.45 1845.09 1075.78 1845.09 1077.34V1095H1838.2V1091.37H1838C1837.58 1092.19 1837.01 1092.91 1836.31 1093.53C1835.6 1094.15 1834.76 1094.63 1833.77 1094.98C1832.78 1095.32 1831.64 1095.49 1830.34 1095.49ZM1832.42 1090.48C1833.49 1090.48 1834.43 1090.27 1835.25 1089.85C1836.07 1089.42 1836.71 1088.84 1837.18 1088.11C1837.64 1087.39 1837.88 1086.56 1837.88 1085.64V1082.86C1837.65 1083.01 1837.34 1083.15 1836.94 1083.27C1836.55 1083.39 1836.12 1083.49 1835.63 1083.6C1835.14 1083.69 1834.65 1083.77 1834.16 1083.85C1833.67 1083.92 1833.23 1083.98 1832.83 1084.04C1831.98 1084.16 1831.24 1084.36 1830.6 1084.64C1829.96 1084.91 1829.47 1085.28 1829.12 1085.74C1828.76 1086.2 1828.59 1086.77 1828.59 1087.45C1828.59 1088.44 1828.95 1089.19 1829.66 1089.72C1830.39 1090.23 1831.31 1090.48 1832.42 1090.48Z" fill="white"/>
    <path d="M1119.55 813H1095.89V743.182H1120.02C1126.95 743.182 1132.91 744.58 1137.89 747.375C1142.89 750.148 1146.73 754.136 1149.41 759.341C1152.09 764.545 1153.43 770.773 1153.43 778.023C1153.43 785.295 1152.08 791.545 1149.38 796.773C1146.69 802 1142.82 806.011 1137.75 808.807C1132.7 811.602 1126.64 813 1119.55 813ZM1108.53 802.057H1118.93C1123.8 802.057 1127.85 801.17 1131.1 799.398C1134.35 797.602 1136.8 794.932 1138.43 791.386C1140.07 787.818 1140.89 783.364 1140.89 778.023C1140.89 772.682 1140.07 768.25 1138.43 764.727C1136.8 761.182 1134.38 758.534 1131.17 756.784C1127.99 755.011 1124.03 754.125 1119.31 754.125H1108.53V802.057ZM1198.28 790.977V760.636H1210.62V813H1198.65V803.693H1198.11C1196.93 806.625 1194.98 809.023 1192.28 810.886C1189.6 812.75 1186.29 813.682 1182.36 813.682C1178.93 813.682 1175.89 812.92 1173.26 811.398C1170.64 809.852 1168.6 807.614 1167.12 804.682C1165.64 801.727 1164.9 798.159 1164.9 793.977V760.636H1177.24V792.068C1177.24 795.386 1178.15 798.023 1179.97 799.977C1181.79 801.932 1184.18 802.909 1187.13 802.909C1188.95 802.909 1190.71 802.466 1192.41 801.58C1194.12 800.693 1195.52 799.375 1196.61 797.625C1197.72 795.852 1198.28 793.636 1198.28 790.977ZM1246.15 814.023C1240.92 814.023 1236.43 812.875 1232.68 810.58C1228.96 808.284 1226.08 805.114 1224.06 801.068C1222.06 797 1221.06 792.318 1221.06 787.023C1221.06 781.705 1222.08 777.011 1224.13 772.943C1226.17 768.852 1229.06 765.67 1232.79 763.398C1236.54 761.102 1240.97 759.955 1246.08 759.955C1250.33 759.955 1254.09 760.739 1257.37 762.307C1260.66 763.852 1263.29 766.045 1265.24 768.886C1267.2 771.705 1268.31 775 1268.58 778.773H1256.79C1256.31 776.25 1255.17 774.148 1253.38 772.466C1251.61 770.761 1249.23 769.909 1246.25 769.909C1243.73 769.909 1241.51 770.591 1239.61 771.955C1237.7 773.295 1236.21 775.227 1235.14 777.75C1234.09 780.273 1233.57 783.295 1233.57 786.818C1233.57 790.386 1234.09 793.455 1235.14 796.023C1236.18 798.568 1237.65 800.534 1239.54 801.92C1241.45 803.284 1243.68 803.966 1246.25 803.966C1248.07 803.966 1249.7 803.625 1251.13 802.943C1252.58 802.239 1253.8 801.227 1254.78 799.909C1255.75 798.591 1256.42 796.989 1256.79 795.102H1268.58C1268.29 798.807 1267.2 802.091 1265.31 804.955C1263.42 807.795 1260.86 810.023 1257.61 811.636C1254.36 813.227 1250.54 814.023 1246.15 814.023ZM1289.97 796.568L1289.93 781.67H1291.91L1310.73 760.636H1325.15L1302 786.409H1299.44L1289.97 796.568ZM1278.72 813V743.182H1291.06V813H1278.72ZM1311.58 813L1294.53 789.17L1302.85 780.477L1326.34 813H1311.58ZM1345.71 743.182V813H1333.37V743.182H1345.71ZM1358.4 813V760.636H1370.74V813H1358.4ZM1364.61 753.205C1362.65 753.205 1360.97 752.557 1359.56 751.261C1358.15 749.943 1357.45 748.364 1357.45 746.523C1357.45 744.659 1358.15 743.08 1359.56 741.784C1360.97 740.466 1362.65 739.807 1364.61 739.807C1366.59 739.807 1368.27 740.466 1369.65 741.784C1371.06 743.08 1371.77 744.659 1371.77 746.523C1371.77 748.364 1371.06 749.943 1369.65 751.261C1368.27 752.557 1366.59 753.205 1364.61 753.205ZM1395.78 782.318V813H1383.43V760.636H1395.23V769.534H1395.84C1397.05 766.602 1398.97 764.273 1401.61 762.545C1404.26 760.818 1407.55 759.955 1411.46 759.955C1415.07 759.955 1418.22 760.727 1420.9 762.273C1423.61 763.818 1425.7 766.057 1427.17 768.989C1428.67 771.92 1429.41 775.477 1429.39 779.659V813H1417.05V781.568C1417.05 778.068 1416.14 775.33 1414.32 773.352C1412.53 771.375 1410.04 770.386 1406.86 770.386C1404.7 770.386 1402.78 770.864 1401.09 771.818C1399.43 772.75 1398.13 774.102 1397.17 775.875C1396.24 777.648 1395.78 779.795 1395.78 782.318ZM1464.71 833.727C1460.28 833.727 1456.47 833.125 1453.29 831.92C1450.11 830.739 1447.55 829.148 1445.62 827.148C1443.68 825.148 1442.34 822.932 1441.59 820.5L1452.71 817.807C1453.21 818.83 1453.93 819.841 1454.89 820.841C1455.84 821.864 1457.13 822.705 1458.74 823.364C1460.38 824.045 1462.43 824.386 1464.91 824.386C1468.41 824.386 1471.31 823.534 1473.61 821.83C1475.9 820.148 1477.05 817.375 1477.05 813.511V803.591H1476.43C1475.8 804.864 1474.87 806.17 1473.64 807.511C1472.43 808.852 1470.83 809.977 1468.83 810.886C1466.86 811.795 1464.37 812.25 1461.37 812.25C1457.34 812.25 1453.7 811.307 1450.42 809.42C1447.17 807.511 1444.58 804.67 1442.65 800.898C1440.74 797.102 1439.79 792.352 1439.79 786.648C1439.79 780.898 1440.74 776.045 1442.65 772.091C1444.58 768.114 1447.18 765.102 1450.46 763.057C1453.73 760.989 1457.38 759.955 1461.4 759.955C1464.47 759.955 1466.99 760.477 1468.97 761.523C1470.97 762.545 1472.56 763.784 1473.74 765.239C1474.92 766.67 1475.82 768.023 1476.43 769.295H1477.12V760.636H1489.29V813.852C1489.29 818.33 1488.22 822.034 1486.08 824.966C1483.95 827.898 1481.03 830.091 1477.32 831.545C1473.62 833 1469.41 833.727 1464.71 833.727ZM1464.81 802.568C1467.42 802.568 1469.65 801.932 1471.49 800.659C1473.33 799.386 1474.73 797.557 1475.68 795.17C1476.64 792.784 1477.12 789.92 1477.12 786.58C1477.12 783.284 1476.64 780.398 1475.68 777.92C1474.75 775.443 1473.37 773.523 1471.53 772.159C1469.71 770.773 1467.47 770.08 1464.81 770.08C1462.06 770.08 1459.76 770.795 1457.92 772.227C1456.08 773.659 1454.7 775.625 1453.76 778.125C1452.83 780.602 1452.37 783.42 1452.37 786.58C1452.37 789.784 1452.83 792.591 1453.76 795C1454.72 797.386 1456.12 799.25 1457.96 800.591C1459.82 801.909 1462.11 802.568 1464.81 802.568Z" fill="#1E1E1E"/>
    <path d="M1647.9 1343.55C1645.71 1343.55 1643.79 1342.99 1642.12 1341.89C1640.45 1340.78 1639.14 1339.21 1638.2 1337.19C1637.25 1335.15 1636.78 1332.75 1636.78 1329.98C1636.78 1327.23 1637.25 1324.84 1638.2 1322.82C1639.14 1320.8 1640.45 1319.23 1642.13 1318.13C1643.82 1317.03 1645.76 1316.48 1647.96 1316.48C1649.67 1316.48 1651.02 1316.76 1652 1317.33C1653 1317.89 1653.77 1318.52 1654.29 1319.24C1654.82 1319.94 1655.24 1320.52 1655.53 1320.98H1655.87V1308.09H1659.9V1343H1656.01V1338.98H1655.53C1655.24 1339.45 1654.82 1340.06 1654.27 1340.78C1653.73 1341.5 1652.95 1342.14 1651.94 1342.71C1650.92 1343.27 1649.58 1343.55 1647.9 1343.55ZM1648.44 1339.93C1650.06 1339.93 1651.42 1339.51 1652.53 1338.67C1653.65 1337.82 1654.49 1336.64 1655.07 1335.14C1655.65 1333.63 1655.94 1331.89 1655.94 1329.91C1655.94 1327.95 1655.66 1326.24 1655.09 1324.78C1654.52 1323.3 1653.68 1322.15 1652.57 1321.34C1651.45 1320.51 1650.08 1320.09 1648.44 1320.09C1646.74 1320.09 1645.32 1320.53 1644.18 1321.4C1643.06 1322.27 1642.21 1323.44 1641.64 1324.93C1641.08 1326.41 1640.81 1328.07 1640.81 1329.91C1640.81 1331.77 1641.09 1333.47 1641.66 1334.99C1642.24 1336.5 1643.09 1337.7 1644.21 1338.6C1645.35 1339.49 1646.76 1339.93 1648.44 1339.93ZM1684.32 1332.3V1316.82H1688.35V1343H1684.32V1338.57H1684.05C1683.44 1339.9 1682.48 1341.03 1681.19 1341.96C1679.89 1342.88 1678.25 1343.34 1676.28 1343.34C1674.64 1343.34 1673.19 1342.98 1671.91 1342.27C1670.64 1341.54 1669.64 1340.45 1668.91 1338.99C1668.19 1337.53 1667.82 1335.68 1667.82 1333.45V1316.82H1671.85V1333.18C1671.85 1335.09 1672.38 1336.61 1673.45 1337.75C1674.53 1338.89 1675.9 1339.45 1677.57 1339.45C1678.57 1339.45 1679.59 1339.2 1680.62 1338.69C1681.67 1338.18 1682.54 1337.39 1683.25 1336.34C1683.96 1335.28 1684.32 1333.93 1684.32 1332.3ZM1706.35 1343.55C1703.89 1343.55 1701.78 1342.97 1700.01 1341.81C1698.24 1340.65 1696.87 1339.05 1695.92 1337.02C1694.96 1334.98 1694.49 1332.66 1694.49 1330.05C1694.49 1327.39 1694.97 1325.04 1695.95 1323.01C1696.94 1320.96 1698.32 1319.36 1700.08 1318.22C1701.85 1317.06 1703.92 1316.48 1706.28 1316.48C1708.12 1316.48 1709.78 1316.82 1711.26 1317.5C1712.74 1318.18 1713.95 1319.14 1714.89 1320.36C1715.83 1321.59 1716.42 1323.02 1716.64 1324.66H1712.62C1712.32 1323.47 1711.63 1322.41 1710.58 1321.49C1709.53 1320.56 1708.12 1320.09 1706.35 1320.09C1704.78 1320.09 1703.41 1320.5 1702.22 1321.32C1701.05 1322.12 1700.14 1323.27 1699.48 1324.74C1698.83 1326.21 1698.51 1327.93 1698.51 1329.91C1698.51 1331.93 1698.83 1333.69 1699.46 1335.19C1700.11 1336.69 1701.02 1337.86 1702.19 1338.69C1703.37 1339.52 1704.76 1339.93 1706.35 1339.93C1707.39 1339.93 1708.34 1339.75 1709.2 1339.39C1710.05 1339.02 1710.77 1338.5 1711.36 1337.82C1711.95 1337.14 1712.37 1336.32 1712.62 1335.36H1716.64C1716.42 1336.91 1715.86 1338.3 1714.96 1339.54C1714.07 1340.77 1712.89 1341.74 1711.43 1342.47C1709.97 1343.19 1708.28 1343.55 1706.35 1343.55ZM1726.28 1333.45L1726.21 1328.48H1727.03L1738.48 1316.82H1743.46L1731.25 1329.16H1730.91L1726.28 1333.45ZM1722.53 1343V1308.09H1726.55V1343H1722.53ZM1739.16 1343L1728.93 1330.05L1731.8 1327.25L1744.28 1343H1739.16ZM1752.66 1308.09V1343H1748.63V1308.09H1752.66ZM1760.03 1343V1316.82H1764.05V1343H1760.03ZM1762.07 1312.45C1761.29 1312.45 1760.61 1312.19 1760.04 1311.65C1759.49 1311.12 1759.21 1310.48 1759.21 1309.73C1759.21 1308.98 1759.49 1308.34 1760.04 1307.8C1760.61 1307.27 1761.29 1307 1762.07 1307C1762.86 1307 1763.53 1307.27 1764.08 1307.8C1764.65 1308.34 1764.93 1308.98 1764.93 1309.73C1764.93 1310.48 1764.65 1311.12 1764.08 1311.65C1763.53 1312.19 1762.86 1312.45 1762.07 1312.45ZM1775.44 1327.25V1343H1771.42V1316.82H1775.3V1320.91H1775.64C1776.26 1319.58 1777.19 1318.51 1778.44 1317.7C1779.69 1316.89 1781.3 1316.48 1783.28 1316.48C1785.05 1316.48 1786.6 1316.84 1787.93 1317.57C1789.26 1318.28 1790.3 1319.38 1791.04 1320.84C1791.77 1322.3 1792.14 1324.14 1792.14 1326.36V1343H1788.12V1326.64C1788.12 1324.58 1787.59 1322.98 1786.52 1321.83C1785.45 1320.67 1783.98 1320.09 1782.12 1320.09C1780.84 1320.09 1779.69 1320.37 1778.68 1320.93C1777.68 1321.48 1776.89 1322.3 1776.31 1323.36C1775.73 1324.43 1775.44 1325.73 1775.44 1327.25ZM1810.06 1353.36C1808.12 1353.36 1806.45 1353.11 1805.05 1352.61C1803.65 1352.12 1802.49 1351.48 1801.56 1350.67C1800.64 1349.88 1799.9 1349.02 1799.36 1348.11L1802.56 1345.86C1802.93 1346.34 1803.39 1346.89 1803.94 1347.5C1804.5 1348.12 1805.26 1348.66 1806.23 1349.12C1807.2 1349.59 1808.48 1349.82 1810.06 1349.82C1812.18 1349.82 1813.92 1349.31 1815.3 1348.28C1816.67 1347.26 1817.36 1345.66 1817.36 1343.48V1338.16H1817.02C1816.72 1338.64 1816.3 1339.23 1815.76 1339.93C1815.22 1340.62 1814.45 1341.24 1813.44 1341.79C1812.44 1342.32 1811.09 1342.59 1809.38 1342.59C1807.27 1342.59 1805.37 1342.09 1803.69 1341.09C1802.02 1340.09 1800.69 1338.64 1799.72 1336.73C1798.75 1334.82 1798.27 1332.5 1798.27 1329.77C1798.27 1327.09 1798.74 1324.76 1799.68 1322.77C1800.63 1320.77 1801.94 1319.22 1803.62 1318.13C1805.3 1317.03 1807.24 1316.48 1809.45 1316.48C1811.15 1316.48 1812.51 1316.76 1813.51 1317.33C1814.52 1317.89 1815.29 1318.52 1815.82 1319.24C1816.37 1319.94 1816.79 1320.52 1817.09 1320.98H1817.49V1316.82H1821.38V1343.75C1821.38 1346 1820.87 1347.83 1819.85 1349.24C1818.84 1350.66 1817.47 1351.7 1815.76 1352.36C1814.05 1353.03 1812.15 1353.36 1810.06 1353.36ZM1809.93 1338.98C1811.54 1338.98 1812.9 1338.61 1814.02 1337.87C1815.13 1337.13 1815.98 1336.07 1816.56 1334.68C1817.14 1333.3 1817.43 1331.64 1817.43 1329.7C1817.43 1327.82 1817.14 1326.15 1816.57 1324.71C1816.01 1323.27 1815.16 1322.14 1814.05 1321.32C1812.94 1320.5 1811.56 1320.09 1809.93 1320.09C1808.22 1320.09 1806.8 1320.52 1805.66 1321.39C1804.54 1322.25 1803.69 1323.41 1803.12 1324.86C1802.57 1326.32 1802.29 1327.93 1802.29 1329.7C1802.29 1331.52 1802.57 1333.13 1803.14 1334.53C1803.72 1335.91 1804.57 1337.01 1805.7 1337.8C1806.84 1338.59 1808.24 1338.98 1809.93 1338.98ZM1831.68 1343.27C1830.84 1343.27 1830.11 1342.97 1829.51 1342.37C1828.91 1341.77 1828.61 1341.05 1828.61 1340.2C1828.61 1339.36 1828.91 1338.64 1829.51 1338.04C1830.11 1337.44 1830.84 1337.14 1831.68 1337.14C1832.52 1337.14 1833.24 1337.44 1833.84 1338.04C1834.44 1338.64 1834.74 1339.36 1834.74 1340.2C1834.74 1340.76 1834.6 1341.27 1834.32 1341.74C1834.05 1342.2 1833.68 1342.58 1833.21 1342.86C1832.76 1343.14 1832.24 1343.27 1831.68 1343.27ZM1860.51 1322.68L1856.89 1323.7C1856.67 1323.1 1856.33 1322.52 1855.89 1321.95C1855.46 1321.37 1854.87 1320.89 1854.12 1320.52C1853.37 1320.14 1852.41 1319.95 1851.24 1319.95C1849.63 1319.95 1848.3 1320.32 1847.23 1321.06C1846.17 1321.79 1845.64 1322.72 1845.64 1323.84C1845.64 1324.84 1846.01 1325.63 1846.74 1326.21C1847.46 1326.79 1848.6 1327.27 1850.14 1327.66L1854.03 1328.61C1856.37 1329.18 1858.12 1330.05 1859.26 1331.22C1860.41 1332.38 1860.99 1333.87 1860.99 1335.7C1860.99 1337.2 1860.55 1338.55 1859.69 1339.73C1858.84 1340.91 1857.64 1341.84 1856.11 1342.52C1854.58 1343.2 1852.79 1343.55 1850.76 1343.55C1848.09 1343.55 1845.88 1342.97 1844.13 1341.81C1842.38 1340.65 1841.27 1338.95 1840.8 1336.73L1844.62 1335.77C1844.99 1337.18 1845.67 1338.24 1846.68 1338.94C1847.71 1339.65 1849.04 1340 1850.69 1340C1852.57 1340 1854.05 1339.6 1855.16 1338.81C1856.27 1338 1856.83 1337.03 1856.83 1335.91C1856.83 1335 1856.51 1334.24 1855.87 1333.62C1855.24 1333 1854.26 1332.53 1852.94 1332.23L1848.58 1331.2C1846.18 1330.64 1844.42 1329.76 1843.29 1328.56C1842.18 1327.36 1841.62 1325.85 1841.62 1324.05C1841.62 1322.57 1842.04 1321.26 1842.87 1320.12C1843.71 1318.99 1844.85 1318.1 1846.29 1317.45C1847.75 1316.8 1849.39 1316.48 1851.24 1316.48C1853.83 1316.48 1855.86 1317.05 1857.34 1318.18C1858.83 1319.32 1859.88 1320.82 1860.51 1322.68ZM1877.68 1343.55C1875.31 1343.55 1873.24 1342.98 1871.46 1341.86C1869.68 1340.73 1868.3 1339.16 1867.3 1337.14C1866.31 1335.11 1865.81 1332.75 1865.81 1330.05C1865.81 1327.32 1866.31 1324.94 1867.3 1322.9C1868.3 1320.87 1869.68 1319.29 1871.46 1318.16C1873.24 1317.04 1875.31 1316.48 1877.68 1316.48C1880.04 1316.48 1882.11 1317.04 1883.88 1318.16C1885.67 1319.29 1887.05 1320.87 1888.04 1322.9C1889.04 1324.94 1889.54 1327.32 1889.54 1330.05C1889.54 1332.75 1889.04 1335.11 1888.04 1337.14C1887.05 1339.16 1885.67 1340.73 1883.88 1341.86C1882.11 1342.98 1880.04 1343.55 1877.68 1343.55ZM1877.68 1339.93C1879.47 1339.93 1880.95 1339.47 1882.11 1338.55C1883.27 1337.63 1884.13 1336.42 1884.68 1334.92C1885.24 1333.42 1885.52 1331.8 1885.52 1330.05C1885.52 1328.3 1885.24 1326.66 1884.68 1325.15C1884.13 1323.64 1883.27 1322.42 1882.11 1321.49C1880.95 1320.56 1879.47 1320.09 1877.68 1320.09C1875.88 1320.09 1874.4 1320.56 1873.25 1321.49C1872.09 1322.42 1871.23 1323.64 1870.67 1325.15C1870.12 1326.66 1869.84 1328.3 1869.84 1330.05C1869.84 1331.8 1870.12 1333.42 1870.67 1334.92C1871.23 1336.42 1872.09 1337.63 1873.25 1338.55C1874.4 1339.47 1875.88 1339.93 1877.68 1339.93Z" fill="#1E1E1E"/>
    <path d="M911.019 798.312C911.019 798.312 954.611 828.717 957.266 830.237C959.826 831.751 963.573 832.109 966.861 830.861C970.153 829.613 972.621 826.759 973.352 823.905C974.175 821.051 984.137 769.684 984.137 769.684C984.229 768.972 984.501 766.922 983.403 764.958C981.849 762.285 978.378 760.86 975.27 761.747C973.56 762.243 972.096 763.356 971.159 764.87C970.608 765.849 969.605 767.457 967.776 768.883C966.405 769.953 965.035 770.577 964.396 770.844C958.82 773.077 952.604 771.201 949.041 766.745C946.847 763.98 942.917 762.909 939.442 764.246C937.799 764.887 936.406 766.039 935.468 767.532C934.53 769.025 934.097 770.78 934.233 772.538C934.875 778.069 931.675 783.596 926.007 785.826C923.109 786.935 919.919 787.03 916.959 786.095C916.317 785.914 914.035 785.382 911.75 786.63C908.918 788.056 907.456 791.445 908.187 794.476C908.734 796.525 910.38 797.865 911.019 798.312Z" fill="#FF9538"/>
    <path d="M983.679 731.697C983.679 731.697 999.218 781.813 1000.31 784.489C1001.41 787.254 1004.15 789.75 1007.53 790.729C1010.91 791.711 1014.66 790.91 1017.04 789.126C1019.42 787.343 1059.54 752.653 1059.54 752.653C1060.78 751.566 1061.62 750.089 1061.91 748.462C1062.37 745.431 1060.45 742.219 1057.53 741.06C1055.85 740.443 1054 740.443 1052.32 741.06C1051.31 741.506 1049.48 742.13 1047.2 742.219C1045.37 742.311 1044 741.953 1043.27 741.773C1037.51 740.167 1033.67 734.997 1033.67 729.378C1033.62 727.624 1033 725.933 1031.92 724.554C1030.83 723.174 1029.33 722.178 1027.64 721.71C1023.98 720.728 1020.24 722.245 1018.32 725.188C1015.3 730.002 1009.36 732.41 1003.51 730.804C1000.4 729.914 997.844 728.042 996.202 725.634C995.743 725.096 994.281 723.313 991.724 722.869C988.616 722.334 985.233 724.117 983.954 726.882C982.948 729.024 983.495 730.981 983.679 731.697Z" fill="#FF9538"/>
</svg>
